# xmcd CD database file
#
# Track frame offsets:
#	150
#	16140
#	28029
#	45766
#	63272
#	75678
#	90288
#	103593
#	119328
#	135265
#	147401
#	163984
#	183079
#	197922
#	209356
#	223972
#	240228
#	252387
#	267424
#	284887
#	300757
#	317620
#	332767
#
# Disc length: 4651 seconds
#
# Revision: 0
# Processed by: cddbd v1.5.2PL0 Copyright (c) Steve Scherf et al.
# Submitted via: ACXtractor (MTCDDB.DLL V2003.07.15)
#
DISCID=41122917
DTITLE=Karen Lynn and Jean Stafford - Labour of Love and Someday I'll Take home th
DTITLE=e Roses
DYEAR=1999
DGENRE=Country
TTITLE0=Nearest Distant Shore
TTITLE1=Water Lilly
TTITLE2=Stronger than I knew
TTITLE3=Woman Before Me
TTITLE4=There Goes my Heart Again
TTITLE5=Calm at the Centre of the Storm
TTITLE6=Wildflowers
TTITLE7=Blame it on Your Heart
TTITLE8=He Says
TTITLE9=Just the Way I Am
TTITLE10=All the Loving and Hurting Too
TTITLE11=Streets of London
TTITLE12=Colours of Australia
TTITLE13=Travellin' Around
TTITLE14=I Told you Many Times
TTITLE15=Something I Know I'm Gonna Love
TTITLE16=Ease the Fever
TTITLE17=Just one more Waltz
TTITLE18=Someday I'll Take home the Roses
TTITLE19=Racoon Mountain
TTITLE20=Someone to Call me Darling
TTITLE21=Trail of Teardrops
TTITLE22=Tribute to Robin
EXTD=ID3G:   2 YEAR: 1999
EXTT0=
EXTT1=
EXTT2=
EXTT3=
EXTT4=
EXTT5=
EXTT6=
EXTT7=
EXTT8=
EXTT9=
EXTT10=
EXTT11=
EXTT12=
EXTT13=
EXTT14=
EXTT15=
EXTT16=
EXTT17=
EXTT18=
EXTT19=
EXTT20=
EXTT21=
EXTT22=
PLAYORDER=
